<?xml version="1.0" encoding="utf-8"?>
<svg viewBox="0 0 200 200" xmlns="http://www.w3.org/2000/svg" xmlns:bx="https://boxy-svg.com">
  <defs>
    <bx:grid x="0" y="0" width="14.408" height="14.408"/>
  </defs>
  <g id="Thin-L" transform="matrix(0, -1.526083, 1.526083, 0, 154.192352, 224.515808)">
    <path d="M 147.119 -35.2539 C 147.119 -41.8457 138.086 -46.6797 127.344 -46.6797 L 103.125 -46.6797 C 100.049 -46.6797 98.877 -47.168 96.9238 -49.2676 L 59.2773 -90.4785 C 58.0566 -91.7969 56.5918 -92.5293 55.0293 -92.5293 L 48.4375 -92.5293 C 46.9727 -92.5293 46.1426 -91.2109 46.875 -89.6484 L 66.2598 -46.6797 L 34.9121 -43.5547 L 24.6582 -62.1582 C 23.8281 -63.4766 22.9004 -64.0625 21.0938 -64.0625 L 18.3594 -64.0625 C 16.8945 -64.0625 16.0645 -63.2812 16.0645 -61.7676 L 16.0645 -8.78906 C 16.0645 -7.22656 16.8945 -6.49414 18.3594 -6.49414 L 21.0938 -6.49414 C 22.9004 -6.49414 23.8281 -7.08008 24.6582 -8.39844 L 34.9121 -26.9531 L 66.2598 -23.877 L 46.875 19.1406 C 46.1426 20.6543 46.9727 21.9727 48.4375 21.9727 L 55.0293 21.9727 C 56.5918 21.9727 58.0566 21.2402 59.2773 19.9219 L 96.9238 -21.2402 C 98.877 -23.3887 100.049 -23.877 103.125 -23.877 L 127.344 -23.877 C 138.086 -23.877 147.119 -28.6621 147.119 -35.2539 Z"/>
  </g>
</svg>