<?xml version="1.0" encoding="utf-8"?>
<svg viewBox="0 0 200 200" xmlns="http://www.w3.org/2000/svg" xmlns:bx="https://boxy-svg.com">
  <defs>
    <bx:grid x="0" y="0" width="14.408" height="14.408"/>
  </defs>
  <g id="Thin-L" transform="matrix(0, -1.526083, 1.526083, 0, 154.192352, 224.515808)">
    <path d="M 137.678 -39.456 C 137.678 -41.883 134.94 -44.391 133.645 -44.391 C 130.326 -44.391 135.025 -44.391 128.237 -44.391 L 109.354 -44.391 C 106.278 -44.391 101.866 -46.186 99.913 -48.286 L 99.913 -91.597 C 98.693 -92.916 94.12 -96.731 90.472 -96.731 C 86.824 -96.731 80.299 -93.16 81.031 -91.597 L 71.59 -44.391 L 62.149 -44.391 L 33.822 -39.639 C 33.825 -40.147 33.825 -57.191 33.825 -63.273 C 33.825 -67.493 21.167 -63.273 21.167 -63.273 C 19.703 -63.273 20.894 -55.345 20.979 -53.858 C 20.894 -53.832 16.125 -41.44 16.143 -34.95 C 16.161 -28.451 21.006 -16.068 21.006 -16.068 C 21.006 -14.506 19.141 -6.626 21.176 -6.6129999999999995 C 20.605 -6.626 33.825 -2.219 33.825 -6.626 C 33.825 -13.832 33.825 -30.235 33.825 -30.235 L 62.149 -25.509 L 71.59 -25.509 L 81.031 21.697 C 80.299 23.21 86.998 25.911 90.472 25.911 C 93.946 25.911 98.693 23.015 99.913 21.697 L 99.913 -20.794 C 101.866 -22.943 106.278 -25.509 109.354 -25.509 L 128.237 -25.509 C 135.418 -25.509 130.239 -25.509 133.62 -25.485 C 135.593 -25.509 137.678 -28.025 137.678 -30.396 C 137.678 -30.396 146.133 -33.618 146.135 -34.95 C 146.137 -36.315 137.678 -39.456 137.678 -39.456 Z"/>
  </g>
</svg>