<?xml version="1.0" encoding="utf-8"?>
<svg viewBox="0 0 200 200" xmlns="http://www.w3.org/2000/svg" xmlns:bx="https://boxy-svg.com">
  <defs>
    <bx:grid x="0" y="0" width="14.408" height="14.408"/>
  </defs>
  <g id="Thin-L" transform="matrix(0, -1.526083, 1.526083, 0, 154.192352, 224.515808)">
    <path d="M 147.119 -34.95 C 147.119 -41.542 138.979 -44.391 128.237 -44.391 L 109.354 -44.391 C 106.278 -44.391 101.866 -46.186 99.913 -48.286 L 90.472 -91.597 C 89.252 -92.916 84.679 -97.135 81.031 -97.135 C 77.383 -97.135 70.858 -93.16 71.59 -91.597 L 73.978 -44.391 L 62.149 -44.391 C 62.149 -44.391 64.374 -51.607 62.149 -53.832 C 57.698 -58.283 47.717 -58.283 43.266 -53.832 C 41.041 -51.607 43.266 -44.391 43.266 -44.391 L 34.912 -43.555 L 24.658 -62.158 C 23.828 -63.477 22.9 -64.062 21.094 -64.062 L 18.359 -64.062 C 16.895 -64.062 16.064 -63.281 16.064 -61.768 L 19.737 -34.95 L 16.064 -8.789 C 16.064 -7.227 16.895 -6.494 18.359 -6.494 L 21.094 -6.494 C 22.9 -6.494 23.828 -7.08 24.658 -8.398 L 34.912 -26.953 L 43.451 -26.66 C 43.451 -26.66 40.791 -18.587 43.266 -16.068 C 47.678 -11.579 57.698 -11.617 62.149 -16.068 C 64.374 -18.293 62.149 -25.509 62.149 -25.509 L 73.978 -25.509 L 71.59 21.697 C 70.858 23.21 77.557 26.113 81.031 26.113 C 84.505 26.113 89.252 23.015 90.472 21.697 L 99.913 -20.794 C 101.866 -22.943 106.278 -25.509 109.354 -25.509 L 128.237 -25.509 C 138.979 -25.509 147.119 -28.358 147.119 -35.511 L 147.119 -34.95 Z"/>
  </g>
</svg>