<?xml version="1.0" encoding="utf-8"?>
<svg version="1.0" width="512.000000pt" height="512.000000pt" viewBox="0 0 512.000000 512.000000" preserveAspectRatio="xMidYMid meet" xmlns="http://www.w3.org/2000/svg">
  <path d="M 251.239 4.012 C 242.63 11.82 234.623 25.533 230.719 39.347 C 229.117 45.252 228.817 51.959 228.316 111.718 L 227.816 177.582 L 211.3 186.391 L 194.784 195.299 L 194.183 180.085 C 193.783 169.674 193.082 163.769 191.981 161.166 L 190.379 157.362 L 176.566 157.663 L 162.752 157.963 L 161.251 160.966 C 160.25 163.168 159.749 168.773 159.449 181.686 C 158.948 202.006 159.249 204.208 162.752 205.109 C 164.654 205.609 165.255 206.41 165.255 208.412 C 165.255 211.015 161.451 213.117 97.989 247.15 C 60.953 266.869 29.622 284.186 28.421 285.488 C 25.218 288.891 23.416 296.098 22.315 309.611 C 21.814 315.918 21.514 321.323 21.714 321.423 C 21.814 321.623 23.216 319.221 24.817 316.018 L 27.62 310.212 L 99.09 285.388 L 170.46 260.563 L 199.388 260.563 L 228.316 260.563 L 228.316 315.817 C 228.316 382.282 229.618 399.7 236.725 427.427 L 239.027 436.536 L 233.922 441.541 C 228.116 447.246 213.602 457.856 190.279 473.272 C 181.471 479.077 173.463 484.983 172.562 486.485 C 171.361 488.186 170.76 491.79 170.46 497.896 C 170.059 505.703 170.26 506.804 171.661 506.804 C 172.562 506.804 189.478 502.7 209.298 497.796 C 229.117 492.791 245.633 488.787 246.134 488.787 C 246.634 488.787 247.435 492.29 248.036 496.695 C 248.636 500.999 249.938 506.304 250.939 508.406 C 252.64 511.809 253.241 512.31 256.344 512.31 C 259.447 512.31 260.047 511.809 261.749 508.406 C 262.75 506.304 264.051 500.999 264.652 496.695 C 265.253 492.29 266.053 488.787 266.554 488.787 C 267.054 488.787 283.571 492.891 303.39 497.796 C 323.209 502.801 340.126 506.804 341.027 506.804 C 342.428 506.804 342.628 505.703 342.228 497.896 C 341.928 491.79 341.327 488.186 340.126 486.384 C 339.125 484.983 331.317 479.077 322.609 473.372 C 299.987 458.457 284.672 447.346 278.766 441.541 L 273.661 436.536 L 275.963 427.427 C 283.07 399.7 284.371 382.282 284.371 315.817 L 284.371 260.563 L 313.3 260.563 L 342.228 260.563 L 413.598 285.388 L 485.068 310.212 L 487.871 316.018 C 489.472 319.221 490.873 321.623 490.974 321.423 C 491.174 321.323 490.873 315.918 490.373 309.611 C 489.272 296.098 487.47 288.891 484.267 285.488 C 483.066 284.186 451.735 266.869 414.699 247.15 C 351.237 213.117 347.433 211.015 347.433 208.412 C 347.433 206.41 348.034 205.609 349.935 205.109 C 353.439 204.208 353.739 202.006 353.239 181.686 C 352.938 168.773 352.438 163.168 351.437 160.966 L 349.935 157.963 L 336.122 157.663 L 322.308 157.362 L 320.707 161.166 C 319.606 163.769 318.905 169.674 318.505 180.085 L 317.904 195.299 L 301.188 186.291 L 284.371 177.282 L 284.371 115.121 C 284.271 48.356 284.071 44.652 279.066 31.139 C 277.765 27.435 275.062 21.83 273.26 18.727 C 269.757 12.921 258.246 0.308 256.344 0.308 C 255.843 0.308 253.541 2.01 251.239 4.012 Z"/>
</svg>