<?xml version="1.0" standalone="no"?>
<!DOCTYPE svg PUBLIC "-//W3C//DTD SVG 20010904//EN"
 "http://www.w3.org/TR/2001/REC-SVG-20010904/DTD/svg10.dtd">
<svg version="1.0" xmlns="http://www.w3.org/2000/svg"
 width="512.000000pt" height="512.000000pt" viewBox="0 0 512.000000 512.000000"
 preserveAspectRatio="xMidYMid meet">

<g transform="translate(0.000000,512.000000) scale(0.100000,-0.100000)"
fill="#000000" stroke="none">
<path d="M2507 5080 c-68 -80 -132 -246 -161 -420 -28 -167 -36 -354 -36 -820
l0 -456 -47 -36 c-43 -32 -309 -198 -318 -198 -2 0 -5 56 -7 123 -2 86 -7 129
-17 140 -11 14 -33 17 -112 17 -134 0 -134 1 -134 -209 0 -152 1 -156 23 -166
59 -26 50 -32 -754 -534 -514 -321 -783 -495 -798 -515 -12 -17 -48 -66 -79
-108 -44 -60 -57 -85 -57 -113 0 -19 2 -35 5 -35 3 0 427 165 942 366 l938
366 185 14 c102 7 190 13 196 14 9 0 13 -138 17 -512 5 -512 13 -672 53 -983
14 -114 48 -297 60 -328 4 -11 -62 -59 -233 -172 -131 -86 -269 -178 -308
-203 -86 -58 -105 -91 -105 -184 0 -48 4 -68 13 -68 7 0 159 40 337 90 179 49
332 90 340 90 11 0 21 -28 38 -98 24 -106 43 -142 72 -142 29 0 48 36 72 142
17 70 27 98 38 98 8 0 161 -41 340 -90 178 -50 330 -90 337 -90 20 0 17 127
-5 170 -18 38 -9 31 -395 285 -173 114 -237 161 -233 172 13 32 46 214 60 328
42 336 56 603 56 1088 0 319 3 407 13 407 6 -1 95 -7 197 -14 l185 -14 938
-366 c515 -201 939 -366 942 -366 3 0 5 16 5 35 0 28 -13 53 -57 113 -31 42
-67 91 -79 108 -15 20 -285 195 -798 515 -804 502 -813 508 -753 534 21 10 22
14 22 166 0 210 0 209 -134 209 -79 0 -101 -3 -112 -17 -10 -11 -15 -54 -17
-140 -2 -67 -5 -123 -7 -123 -9 0 -275 166 -317 198 l-48 36 0 451 c0 600 -14
777 -75 988 -44 153 -129 297 -175 297 -10 0 -34 -18 -53 -40z"/>
</g>
</svg>
