<?xml version="1.0" standalone="no"?>
<!DOCTYPE svg PUBLIC "-//W3C//DTD SVG 20010904//EN"
 "http://www.w3.org/TR/2001/REC-SVG-20010904/DTD/svg10.dtd">
<svg version="1.0" xmlns="http://www.w3.org/2000/svg"
 width="512.000000pt" height="512.000000pt" viewBox="0 0 512.000000 512.000000"
 preserveAspectRatio="xMidYMid meet">

<g transform="translate(0.000000,512.000000) scale(0.100000,-0.100000)"
fill="#000000" stroke="none">
<path d="M2504 5083 c-69 -68 -128 -238 -159 -453 -15 -107 -34 -457 -38 -720
l-2 -144 -265 -223 -265 -223 -5 130 c-4 101 -8 133 -20 140 -22 14 -184 12
-198 -2 -9 -9 -12 -76 -12 -239 l0 -226 -232 -195 -233 -196 -3 129 c-3 129
-3 130 -28 139 -33 13 -145 13 -178 0 l-26 -10 0 -227 0 -228 -358 -301 c-196
-165 -367 -315 -380 -334 -40 -59 -54 -127 -59 -270 l-4 -135 29 32 c22 26
113 70 432 212 223 99 411 181 419 183 8 2 17 -10 23 -29 11 -40 35 -43 44 -5
16 73 17 75 115 119 52 23 97 42 102 42 4 1 7 -8 7 -18 0 -62 35 -68 50 -8 6
23 12 47 14 52 3 8 118 63 191 91 7 3 17 -12 24 -36 17 -58 38 -51 51 18 l12
59 366 162 c202 90 372 165 379 168 8 3 12 -143 16 -584 5 -619 11 -714 56
-876 l19 -68 -317 -262 c-174 -143 -322 -268 -329 -277 -76 -89 -134 -226
-148 -348 -11 -98 -18 -99 454 81 389 148 407 154 414 133 3 -11 18 -77 33
-146 54 -252 76 -252 130 0 15 69 30 135 33 146 7 21 25 15 414 -133 472 -180
465 -179 454 -81 -14 122 -72 259 -148 348 -7 9 -155 134 -329 277 l-317 262
19 68 c45 162 51 257 56 876 4 441 8 587 16 584 7 -3 177 -78 379 -168 l366
-162 12 -59 c13 -69 34 -76 51 -18 7 24 17 39 24 36 73 -28 188 -83 191 -91 2
-5 8 -29 14 -52 15 -60 50 -54 50 8 0 10 3 19 8 18 4 0 49 -19 101 -42 98 -44
99 -46 115 -119 9 -38 33 -35 44 5 6 19 15 31 23 29 8 -2 196 -84 419 -183
319 -142 410 -186 432 -212 l29 -32 -4 135 c-5 139 -18 205 -56 267 -11 17
-182 168 -380 335 l-361 303 0 227 c0 214 -1 228 -19 238 -25 13 -151 13 -185
0 -25 -9 -25 -10 -28 -139 l-3 -129 -232 196 -233 195 0 226 c0 163 -3 230
-12 239 -14 14 -176 16 -198 2 -12 -7 -16 -39 -20 -140 l-5 -130 -265 223
-265 223 -2 144 c-4 263 -23 613 -38 720 -20 138 -58 280 -96 358 -35 71 -90
132 -119 132 -11 0 -36 -16 -56 -37z"/>
</g>
</svg>
