<?xml version="1.0" encoding="utf-8"?>
<svg viewBox="0 0 200 200" xmlns="http://www.w3.org/2000/svg" xmlns:bx="https://boxy-svg.com">
  <defs>
    <bx:grid x="0" y="0" width="14.408" height="14.408"/>
  </defs>
  <g id="Thin-L" transform="matrix(0, -1.526083, 1.526083, 0, 154.192352, 224.515808)">
    <path d="M 147.119 -35.254 C 147.119 -41.846000000000004 138.086 -46.68 127.344 -46.68 L 103.125 -46.68 C 100.049 -46.68 98.877 -47.168 96.924 -49.268 L 90.503 -56.217 L 90.503 -66.571 L 81.002 -66.571 L 59.277 -90.478 C 58.057 -91.797 56.592 -92.529 55.029 -92.529 L 48.438 -92.529 C 46.973 -92.529 46.143 -91.211 46.875 -89.648 L 66.26 -46.68 L 34.912 -43.555 L 24.658 -62.158 C 23.828 -63.477 22.9 -64.062 21.094 -64.062 L 18.359 -64.062 C 16.895 -64.062 16.064 -63.281 16.064 -61.768 L 24.384 -34.95 L 16.064 -8.789 C 16.064 -7.227 16.895 -6.494 18.359 -6.494 L 21.094 -6.494 C 22.9 -6.494 23.828 -7.08 24.658 -8.398 L 34.912 -26.953 L 66.26 -23.877 L 46.875 19.141 C 46.143 20.654 46.973 21.973 48.438 21.973 L 55.029 21.973 C 56.592 21.973 58.057 21.24 59.277 19.922 L 80.805 -3.927 L 90.503 -3.927 L 90.503 -14.345 L 96.924 -21.24 C 98.877 -23.389 100.049 -23.877 103.125 -23.877 L 127.344 -23.877 C 138.086 -23.877 147.119 -28.662 147.119 -35.254 Z"/>
  </g>
</svg>