<?xml version="1.0" encoding="utf-8"?>
<svg viewBox="0 0 200 200" xmlns="http://www.w3.org/2000/svg" xmlns:bx="https://boxy-svg.com">
  <defs>
    <bx:grid x="0" y="0" width="14.408" height="14.408"/>
  </defs>
  <g id="Thin-L" transform="matrix(0, -1.526083, 1.526083, 0, 154.192352, 224.515808)">
    <path d="M 17.718 -10.644 L 24.384 -34.95 L 17.718 -59.193 L 22.376 -63.188 L 42.042 -45.053 L 46.445 -45.053 L 42.042 -78.667 L 53.954 -79.462 L 99.913 -44.391 C 99.913 -44.391 119.05 -46.566 128.237 -44.391 C 135.089 -42.769 147.119 -34.918 147.119 -34.918 C 147.119 -34.918 135.081 -27.123 128.237 -25.509 C 119.056 -23.344 99.939 -25.485 99.939 -25.485 L 53.954 9.636 L 42.042 8.831 L 46.445 -24.784 L 42.042 -24.784 L 22.376 -6.638 L 17.718 -10.644 Z" stroke="none" fill="#000"/>
  </g>
</svg>