<?xml version="1.0" encoding="utf-8"?>
<svg viewBox="0 0 200 200" xmlns="http://www.w3.org/2000/svg" xmlns:bx="https://boxy-svg.com">
  <defs>
    <bx:grid x="0" y="0" width="14.408" height="14.408"/>
  </defs>
  <g id="Thin-L" transform="matrix(0, -1.526083, 1.526083, 0, 154.192352, 224.515808)">
    <path d="M 142.944 -44.391 C 139.538 -52.615 135.405 -50.329 128.237 -53.832 C 116.927 -59.359 102.102 -58.649 90.472 -53.832 C 82.248 -50.426 71.59 -40.893 71.59 -40.893 L 33.825 -40.893 L 24.658 -62.158 C 23.828 -63.477 22.9 -64.062 21.094 -64.062 L 18.359 -64.062 C 16.895 -64.062 16.064 -63.281 16.064 -61.768 L 24.384 -44.391 L 24.384 -25.509 L 16.064 -8.789 C 16.064 -7.227 16.895 -6.494 18.359 -6.494 L 21.094 -6.494 C 22.9 -6.494 23.828 -7.08 24.658 -8.398 L 33.822 -30.006 L 71.59 -29.975 C 71.59 -29.975 82.248 -19.474 90.472 -16.068 C 102.102 -11.25 116.937 -10.521 128.237 -16.068 C 135.379 -19.574 139.429 -17.285 142.835 -25.509 C 145.244 -31.324 145.353 -38.576 142.86 -44.422 L 142.944 -44.391 Z"/>
  </g>
  <path style="stroke: rgb(0, 0, 0); stroke-width: 0px;" d="M 96.385 -25.442 C 96.705 55.448 96.705 113.74 96.607 193.603 C 96.599 200.4 105.318 200.399 105.292 193.603 C 104.981 113.74 104.981 55.448 104.846 -25.442 C 104.835 -32.064 96.359 -32.064 96.385 -25.442 Z" transform="matrix(0.642788, -0.766044, 0.766044, 0.642788, -28.43878, 107.304662)"/>
  <path style="stroke: rgb(0, 0, 0); stroke-width: 0px;" d="M 96.348 -25.479 C 96.668 55.411 96.668 113.703 96.57 193.566 C 96.562 200.363 105.281 200.362 105.255 193.566 C 104.944 113.703 104.944 55.411 104.809 -25.479 C 104.798 -32.101 96.322 -32.101 96.348 -25.479 Z" transform="matrix(0.642788, 0.766044, -0.766044, 0.642788, 100.438642, -47.173674)"/>
</svg>