<svg version="1.0" xmlns="http://www.w3.org/2000/svg" width="512.000000" height="512.000000" viewBox="0 0 512.000000 512.000000" preserveAspectRatio="xMidYMid meet"><g transform="translate(0.000000,512.000000) scale(0.100000,-0.100000)" fill="rgb(10,10,10)" stroke="none"><path d="M1007 3868 c-11 -236 -9 -496 5 -517 10 -16 7 -23 -20 -46 -24 -20 -32 -35 -32 -59 0 -69 85 -101 135 -51 33 32 32 70 -2 104 l-28 28 3 341 3 342 -29 0 -29 0 -6 -142z m54 -588 c39 -21 13 -75 -33 -68 -30 4 -38 46 -12 65 21 16 20 16 45 3z"/><path d="M4066 3918 c-10 -150 -7 -563 5 -575 7 -7 2 -15 -16 -27 -36 -23 -49 -62 -34 -98 33 -79 149 -55 149 31 0 23 -9 40 -32 61 -25 23 -29 32 -19 43 9 11 10 94 5 336 l-7 321 -22 0 c-21 0 -22 -6 -29 -92z m48 -641 c26 -19 18 -61 -12 -65 -44 -7 -67 32 -36 62 19 19 25 20 48 3z"/><path d="M2510 3640 c-16 -17 -39 -57 -50 -88 -30 -78 -66 -296 -79 -482 -6 -85 -14 -188 -17 -227 l-6 -73 -144 -2 c-290 -5 -279 -5 -279 17 0 11 -9 25 -20 31 -27 14 -55 -3 -55 -34 l0 -22 -332 2 -333 3 -3 45 c-5 96 -33 245 -57 303 -13 34 -23 62 -22 62 1 1 130 -72 285 -162 227 -131 287 -161 298 -152 8 6 14 17 14 25 0 7 -66 52 -147 100 -82 48 -179 106 -218 129 -153 91 -209 119 -213 106 -2 -7 -15 -24 -27 -39 -20 -23 -30 -27 -74 -26 l-50 2 -15 -42 c-38 -101 -46 -286 -22 -492 17 -140 52 -299 69 -311 7 -5 38 -7 70 -5 68 5 68 5 87 126 l13 78 66 -7 c36 -3 147 -17 246 -30 255 -33 696 -74 806 -75 l36 0 6 -76 c10 -107 40 -293 92 -569 13 -66 25 -154 27 -195 l3 -75 -195 -52 c-107 -29 -212 -55 -232 -58 -38 -7 -38 -6 -38 27 0 41 -25 137 -39 151 -45 45 -74 -205 -52 -448 l6 -70 34 -3 c40 -4 51 8 51 61 0 80 -9 77 261 77 200 0 243 -2 255 -15 20 -19 78 -19 98 0 12 13 55 15 260 15 135 0 246 -3 246 -7 0 -33 22 -128 30 -133 6 -4 23 -5 39 -2 28 4 28 5 35 85 15 197 2 392 -29 434 -21 28 -35 6 -53 -91 -9 -47 -21 -86 -26 -86 -18 0 -441 112 -447 118 -10 10 16 234 40 342 27 128 68 386 77 486 l6 82 117 6 c170 10 508 43 726 71 105 13 218 27 251 30 l61 7 7 -49 c4 -26 14 -71 22 -100 l14 -51 58 -4 c31 -2 62 0 68 4 6 4 18 36 27 70 53 202 73 510 43 658 -23 113 -27 119 -79 119 -23 -1 -53 1 -67 3 -23 3 -27 -3 -53 -80 -17 -50 -32 -126 -39 -190 -5 -59 -12 -113 -14 -120 -3 -10 -74 -12 -331 -10 -317 3 -328 4 -332 23 -9 48 -66 50 -73 3 -3 -26 12 -25 -282 -20 l-143 2 -7 103 c-16 232 -38 446 -57 541 -44 219 -122 308 -199 226z m28 -457 c2 -40 -2 -81 -7 -91 -10 -19 -115 -51 -128 -39 -3 4 -2 46 3 94 8 79 11 89 34 100 14 7 41 12 60 11 l35 -3 3 -72z m168 55 c15 -14 31 -155 21 -181 -5 -13 -13 -13 -63 3 -38 11 -60 24 -65 37 -6 16 -6 118 0 157 2 13 91 0 107 -16z"/><path d="M3885 3171 c-55 -32 -138 -81 -185 -108 -47 -28 -128 -75 -180 -105 -52 -30 -95 -59 -97 -65 -2 -5 3 -17 10 -27 13 -18 31 -9 298 144 156 89 285 164 287 165 5 4 -18 55 -25 55 -5 0 -53 -27 -108 -59z"/><path d="M855 3176 c-38 -24 -167 -101 -285 -171 -118 -70 -216 -128 -218 -130 -2 -2 2 -15 10 -28 l13 -26 100 58 c345 200 472 275 483 286 12 10 12 16 0 34 -7 11 -17 21 -23 21 -5 0 -41 -20 -80 -44z"/><path d="M4172 3200 c-6 -11 -12 -21 -12 -23 0 -2 48 -32 108 -67 59 -35 192 -114 297 -176 170 -100 190 -110 202 -96 7 10 13 22 13 28 0 6 -111 78 -247 159 -137 81 -265 158 -285 171 -46 29 -60 30 -76 4z"/></g></svg>