<?xml version="1.0" encoding="utf-8"?>
<svg viewBox="0 0 200 200" xmlns="http://www.w3.org/2000/svg" xmlns:bx="https://boxy-svg.com">
  <defs>
    <bx:grid x="0" y="0" width="14.286" height="14.3"/>
  </defs>
  <path d="M 565 355 m -35.428 0 a 35.428 35.428 0 1 0 70.856 0 a 35.428 35.428 0 1 0 -70.856 0 Z M 565 355 m -21.257 0 a 21.257 21.257 0 0 1 42.514 0 a 21.257 21.257 0 0 1 -42.514 0 Z" transform="matrix(-0.724416, 0.689363, -0.689363, -0.724416, 703.93356, -82.23506)" bx:shape="ring 565 355 21.257 21.257 35.428 35.428 1@ee613e3f"/>
  <path d="M 565 355 m -35.428 0 a 35.428 35.428 0 1 0 70.856 0 a 35.428 35.428 0 1 0 -70.856 0 Z M 565 355 m -21.257 0 a 21.257 21.257 0 0 1 42.514 0 a 21.257 21.257 0 0 1 -42.514 0 Z" transform="matrix(-0.724416, 0.689363, -0.689363, -0.724416, 804.108365, -82.23506)" bx:shape="ring 565 355 21.257 21.257 35.428 35.428 1@ee613e3f"/>
  <path d="M 565 355 m -35.428 0 a 35.428 35.428 0 1 0 70.856 0 a 35.428 35.428 0 1 0 -70.856 0 Z M 565 355 m -21.257 0 a 21.257 21.257 0 0 1 42.514 0 a 21.257 21.257 0 0 1 -42.514 0 Z" transform="matrix(-0.724416, 0.689363, -0.689363, -0.724416, 704.106351, 17.864939)" bx:shape="ring 565 355 21.257 21.257 35.428 35.428 1@ee613e3f"/>
  <path d="M 565 355 m -35.428 0 a 35.428 35.428 0 1 0 70.856 0 a 35.428 35.428 0 1 0 -70.856 0 Z M 565 355 m -21.257 0 a 21.257 21.257 0 0 1 42.514 0 a 21.257 21.257 0 0 1 -42.514 0 Z" transform="matrix(-0.724416, 0.689363, -0.689363, -0.724416, 804.108365, 17.7901)" bx:shape="ring 565 355 21.257 21.257 35.428 35.428 1@ee613e3f"/>
  <path style="stroke: rgb(0, 0, 0); stroke-width: 0px;" d="M 57.144 42.9 C 74.235 41.207 79.789 71.5 100.002 71.5 C 120.215 71.5 125.769 41.207 142.86 42.9 C 149.565 43.564 156.482 50.495 157.146 57.2 C 158.839 74.298 128.574 79.887 128.574 100.1 C 128.574 120.313 158.839 125.902 157.146 143 C 156.482 149.705 149.565 156.636 142.86 157.3 C 125.769 158.993 120.215 128.7 100.002 128.7 C 79.789 128.7 74.235 158.993 57.144 157.3 C 50.439 156.636 43.522 149.705 42.858 143 C 41.165 125.902 71.43 120.313 71.43 100.1 C 71.43 79.887 41.165 74.298 42.858 57.2 C 43.522 50.495 50.439 43.564 57.144 42.9 Z"/>
</svg>