<?xml version="1.0" encoding="utf-8"?>
<svg viewBox="0 0 200 200" xmlns="http://www.w3.org/2000/svg" xmlns:bx="https://boxy-svg.com">
  <defs>
    <bx:grid x="0" y="0" width="14.286" height="14.3"/>
  </defs>
  <g id="Thin-L" transform="matrix(0, -1.526083, 1.526083, 0, 154.192352, 224.515808)">
    <path d="M 147.119 -35.509 C 147.119 -42.101 128.247 -40.196 128.247 -40.196 C 128.247 -40.196 121.869 -39.494 118.811 -40.229 C 115.479 -41.03 109.637 -44.871 109.637 -44.871 C 109.637 -44.871 109.637 -82.316 109.637 -97.762 C 109.637 -101.182 99.913 -101.038 99.913 -101.038 C 98.849 -102.188 99.913 -59.556 97.974 -44.881 C 96.725 -42.05 90.503 -40.229 90.503 -40.229 L 24.386 -38.787 L 24.658 -62.158 C 23.828 -63.477 22.9 -64.062 21.094 -64.062 L 18.359 -64.062 C 16.895 -64.062 16.064 -63.281 16.064 -61.768 L 14.943 -34.95 L 16.064 -8.789 C 16.064 -7.227 16.895 -6.494 18.359 -6.494 L 21.094 -6.494 C 22.9 -6.494 23.828 -7.08 24.658 -8.398 L 24.386 -32.234 L 90.503 -30.858 C 90.503 -30.858 96.893 -28.325 97.974 -26.14 C 100.715 -9.365 99.913 28.489 99.939 30.016 C 99.181 30.002 109.637 30.048 109.637 26.756 C 109.637 11.297 109.637 -26.148 109.637 -26.148 C 111.59 -28.297 115.471 -30.44 119.008 -30.858 C 122.368 -30.977 128.247 -30.826 128.247 -30.826 C 128.247 -30.826 147.119 -28.917 147.119 -35.509 Z"/>
  </g>
</svg>