<?xml version="1.0" encoding="utf-8"?>
<svg viewBox="0 0 200 200" xmlns="http://www.w3.org/2000/svg" xmlns:bx="https://boxy-svg.com">
  <defs>
    <bx:grid x="0" y="0" width="14.286" height="14.3"/>
  </defs>
  <g id="Thin-L" transform="matrix(0, -1.526083, 1.526083, 0, 154.197083, 253.115128)">
    <path d="M 147.64 -35.505 C 147.64 -42.097 91.064 -101.03 91.064 -101.03 C 90.511 -101.627 91.418 -78.099 91.418 -78.099 L 82.048 -63.585 C 82.048 -63.585 98.395 -44.866 91.418 -44.866 C 72.677 -44.866 72.677 -44.866 63.306 -44.866 C 60.254 -44.866 72.744 -40.081 72.677 -35.505 C 72.606 -30.724 60.117 -26.143 63.306 -26.143 C 72.677 -26.143 78.924 -26.143 91.418 -26.143 C 100.788 -26.143 82.048 -7.418 82.048 -7.418 L 91.418 7.087 L 91.09 30.024 C 91.09 30.024 147.64 -28.913 147.64 -35.505 Z"/>
  </g>
</svg>