<?xml version="1.0" standalone="no"?>
<!DOCTYPE svg PUBLIC "-//W3C//DTD SVG 20010904//EN"
 "http://www.w3.org/TR/2001/REC-SVG-20010904/DTD/svg10.dtd">
<svg version="1.0" xmlns="http://www.w3.org/2000/svg"
 width="512.000000pt" height="512.000000pt" viewBox="0 0 512.000000 512.000000"
 preserveAspectRatio="xMidYMid meet">

<g transform="translate(0.000000,512.000000) scale(0.100000,-0.100000)"
fill="#000000" stroke="none">
<path d="M2517 5043 c-135 -290 -233 -673 -267 -1043 -5 -63 -10 -246 -10
-406 l0 -292 -64 -59 c-94 -88 -302 -243 -327 -243 -5 0 -9 29 -9 65 l0 66
-107 -3 -108 -3 -5 -128 -5 -129 -690 -339 c-379 -187 -701 -350 -714 -362
-48 -44 -71 -113 -71 -214 0 -63 4 -93 11 -93 11 0 1377 381 1433 400 26 9 33
6 65 -28 28 -29 39 -52 49 -101 16 -78 36 -77 40 2 3 53 5 57 28 57 44 0 64
17 64 55 l0 35 98 0 c53 0 140 -3 193 -6 l96 -7 6 -326 c7 -429 39 -804 89
-1046 11 -55 21 -106 22 -114 0 -8 -60 -57 -135 -110 -340 -240 -561 -405
-568 -425 -9 -23 -22 -246 -15 -246 5 0 840 208 865 216 12 3 18 -7 25 -43 l9
-48 45 0 45 0 9 48 c7 36 13 46 25 43 59 -18 864 -216 867 -214 2 2 0 59 -5
126 -6 102 -11 126 -27 141 -25 25 -484 356 -602 434 -75 50 -91 66 -87 82 63
249 104 669 112 1156 l6 326 96 7 c53 3 140 6 194 6 l97 0 0 -35 c0 -38 20
-55 64 -55 23 0 25 -4 28 -57 4 -79 24 -80 40 -2 10 49 21 72 49 101 32 34 39
37 65 28 56 -19 1422 -400 1433 -400 7 0 11 30 11 93 0 101 -23 170 -71 214
-13 12 -335 175 -714 362 l-690 339 -5 129 -5 128 -107 3 -108 3 0 -66 c0 -36
-4 -65 -9 -65 -25 0 -233 155 -327 243 l-64 59 0 292 c0 160 -5 343 -10 406
-28 299 -99 616 -197 875 -42 111 -104 245 -113 245 -4 0 -23 -35 -43 -77z"/>
</g>
</svg>
