<?xml version="1.0" standalone="no"?>
<!DOCTYPE svg PUBLIC "-//W3C//DTD SVG 20010904//EN"
 "http://www.w3.org/TR/2001/REC-SVG-20010904/DTD/svg10.dtd">
<svg version="1.0" xmlns="http://www.w3.org/2000/svg"
 width="512.000000pt" height="512.000000pt" viewBox="0 0 512.000000 512.000000"
 preserveAspectRatio="xMidYMid meet">

<g transform="translate(0.000000,512.000000) scale(0.100000,-0.100000)"
fill="#000000" stroke="none">
<path d="M2512 5104 c-83 -58 -152 -303 -182 -639 -6 -66 -14 -281 -17 -478
l-6 -358 -226 -199 -226 -200 -5 66 c-6 82 -20 94 -105 94 -98 0 -105 -9 -105
-138 0 -59 4 -113 9 -120 4 -7 20 -16 36 -20 27 -8 16 -18 -256 -259 l-284
-252 -3 77 c-2 42 -8 82 -14 89 -14 17 -159 18 -176 1 -8 -8 -12 -52 -12 -130
0 -96 3 -120 15 -124 9 -4 15 -19 15 -38 -1 -28 -27 -54 -285 -281 l-284 -250
0 -235 c0 -129 3 -228 6 -220 4 8 13 48 22 89 l16 74 590 335 590 335 325 104
c179 57 333 106 343 109 16 5 17 -27 17 -579 0 -450 4 -619 15 -738 16 -163
40 -314 55 -353 10 -27 16 -20 -426 -447 l-202 -194 -7 -108 c-4 -60 -5 -111
-2 -113 2 -3 168 44 368 104 200 60 365 108 367 107 2 -2 12 -42 23 -89 12
-47 29 -96 40 -108 l19 -23 19 23 c11 12 28 61 40 108 11 47 21 87 23 89 2 1
167 -47 367 -107 200 -60 366 -107 368 -104 3 2 2 53 -2 113 l-7 108 -202 194
c-442 427 -436 420 -426 447 15 39 39 190 55 353 11 119 15 288 15 738 0 552
1 584 18 579 9 -3 163 -52 342 -109 l326 -104 589 -335 590 -335 16 -74 c9
-41 18 -81 22 -89 3 -8 6 91 6 220 l0 235 -284 250 c-258 227 -284 253 -285
281 0 19 6 34 15 38 12 4 15 28 15 124 0 78 -4 122 -12 130 -17 17 -162 16
-176 -1 -6 -7 -12 -47 -14 -89 l-3 -77 -284 252 c-272 241 -283 251 -256 259
16 4 32 13 36 20 5 7 9 61 9 120 0 129 -7 138 -105 138 -85 0 -99 -12 -105
-94 l-5 -66 -226 200 -226 199 -6 358 c-4 197 -11 412 -17 478 -36 406 -123
655 -230 655 -14 0 -36 -7 -48 -16z"/>
</g>
</svg>
