<?xml version="1.0" standalone="no"?>
<!DOCTYPE svg PUBLIC "-//W3C//DTD SVG 20010904//EN"
 "http://www.w3.org/TR/2001/REC-SVG-20010904/DTD/svg10.dtd">
<svg version="1.0" xmlns="http://www.w3.org/2000/svg"
 width="512.000000pt" height="512.000000pt" viewBox="0 0 512.000000 512.000000"
 preserveAspectRatio="xMidYMid meet">

<g transform="translate(0.000000,512.000000) scale(0.100000,-0.100000)"
fill="#000000" stroke="none">
<path d="M2504 5088 c-123 -108 -199 -352 -224 -720 -6 -84 -10 -331 -9 -548
l0 -395 -34 -40 c-29 -35 -365 -285 -381 -285 -4 0 -3 62 0 138 6 131 6 138
-16 165 l-22 28 -121 -3 -122 -3 -19 -38 c-17 -36 -18 -49 -7 -180 10 -123 14
-144 32 -159 17 -14 20 -27 17 -75 l-3 -58 -230 -159 c-126 -87 -477 -328
-779 -534 -456 -312 -551 -381 -562 -408 -17 -41 -19 -175 -2 -192 7 -7 21
-12 31 -12 18 0 542 194 1077 399 222 85 236 89 244 70 13 -28 32 -23 42 12 8
26 19 35 84 60 58 23 312 79 359 79 5 0 12 -11 15 -25 9 -34 33 -31 41 5 8 35
1 32 195 65 85 15 163 29 173 31 16 5 17 -22 17 -478 0 -367 4 -514 15 -613
17 -142 40 -282 54 -333 9 -31 7 -35 -37 -76 -55 -51 -327 -282 -564 -479
-132 -110 -167 -144 -172 -169 -7 -37 -8 -158 -1 -158 3 0 203 50 445 110 242
61 444 110 449 110 5 0 12 -15 16 -32 33 -168 77 -168 110 0 4 17 11 32 16 32
5 0 207 -50 449 -110 242 -61 442 -110 445 -110 7 0 6 121 -1 158 -5 25 -40
59 -172 169 -237 197 -509 428 -564 479 -44 41 -46 45 -37 76 14 51 37 191 54
333 11 99 15 246 15 613 0 456 1 483 18 478 9 -2 87 -16 172 -31 194 -33 187
-30 195 -65 8 -36 32 -39 41 -5 3 14 10 25 15 25 47 0 301 -56 359 -79 65 -25
76 -34 84 -60 10 -35 29 -40 42 -12 8 19 22 15 244 -70 535 -205 1059 -399
1077 -399 10 0 24 5 31 12 17 17 15 151 -2 192 -11 27 -106 96 -562 408 -302
206 -652 447 -779 534 l-230 159 -3 58 c-3 48 0 61 17 75 18 15 22 37 32 154
12 148 5 199 -31 218 -10 6 -68 10 -129 10 -108 0 -110 0 -131 -27 -21 -27
-22 -34 -16 -165 4 -76 4 -138 1 -138 -17 0 -352 250 -382 285 l-34 40 0 395
c2 575 -19 812 -90 1026 -47 142 -143 274 -199 274 -11 0 -36 -15 -56 -32z"/>
</g>
</svg>
