<?xml version="1.0" standalone="no"?>
<!DOCTYPE svg PUBLIC "-//W3C//DTD SVG 20010904//EN"
 "http://www.w3.org/TR/2001/REC-SVG-20010904/DTD/svg10.dtd">
<svg version="1.0" xmlns="http://www.w3.org/2000/svg"
 width="512.000000pt" height="512.000000pt" viewBox="0 0 512.000000 512.000000"
 preserveAspectRatio="xMidYMid meet">

<g transform="translate(0.000000,512.000000) scale(0.100000,-0.100000)"
fill="#000000" stroke="none">
<path d="M2498 5101 c-61 -48 -124 -222 -158 -436 -33 -206 -41 -346 -47 -816
l-6 -456 -150 -104 c-83 -57 -155 -105 -159 -107 -4 -2 -8 43 -8 101 0 122
-13 149 -83 168 -51 14 -155 5 -197 -16 l-30 -16 0 -192 c0 -161 3 -196 16
-216 14 -19 14 -25 3 -36 -8 -7 -348 -243 -756 -525 -843 -581 -784 -531 -791
-683 -6 -108 1 -114 86 -75 100 44 522 218 1008 414 l431 173 311 7 311 7 4
-589 4 -589 31 -175 32 -174 -20 -21 c-11 -11 -161 -135 -333 -276 l-312 -255
-3 -98 c-2 -88 -1 -98 14 -92 89 34 758 256 761 252 3 -3 19 -62 37 -132 21
-83 38 -131 49 -138 34 -21 50 5 83 138 18 70 34 129 37 132 3 4 672 -218 761
-252 15 -6 16 4 14 92 l-3 98 -312 255 c-172 141 -322 265 -333 276 l-20 21
32 174 31 175 4 589 4 589 311 -7 311 -7 431 -173 c486 -196 908 -370 1008
-414 85 -39 92 -33 86 75 -7 152 52 102 -791 683 -408 282 -746 516 -751 521
-6 5 -2 24 8 46 14 32 16 66 14 217 -3 178 -3 179 -28 198 -33 24 -140 34
-198 19 -68 -19 -76 -35 -82 -166 l-5 -114 -161 111 -161 112 -6 455 c-3 251
-11 510 -17 576 -24 268 -72 485 -132 598 -39 72 -69 97 -118 97 -22 0 -48 -8
-62 -19z"/>
</g>
</svg>
