<?xml version="1.0" standalone="no"?>
<!DOCTYPE svg PUBLIC "-//W3C//DTD SVG 20010904//EN"
 "http://www.w3.org/TR/2001/REC-SVG-20010904/DTD/svg10.dtd">
<svg version="1.0" xmlns="http://www.w3.org/2000/svg"
 width="512.000000pt" height="512.000000pt" viewBox="0 0 512.000000 512.000000"
 preserveAspectRatio="xMidYMid meet">

<g transform="translate(0.000000,512.000000) scale(0.100000,-0.100000)"
fill="#000000" stroke="none">
<path d="M2496 5099 c-57 -45 -109 -172 -145 -351 -47 -237 -61 -444 -61 -913
l-1 -370 -187 -149 -187 -148 -5 151 c-7 201 -2 196 -181 196 l-131 0 -24 -28
c-24 -28 -24 -31 -24 -236 0 -196 1 -210 21 -235 11 -14 28 -26 37 -26 10 0
22 -8 29 -19 10 -16 -52 -69 -633 -536 -635 -511 -750 -612 -819 -720 -62 -96
-104 -242 -76 -260 7 -4 37 17 73 50 169 156 230 188 1146 589 l403 176 274 0
274 0 3 -487 c4 -439 6 -504 27 -653 12 -91 31 -204 41 -253 l18 -88 -308
-294 -307 -295 -7 -76 c-9 -107 -8 -124 7 -124 6 0 147 59 311 130 224 97 310
130 341 130 l41 0 12 -58 c6 -31 22 -78 34 -102 22 -43 25 -45 68 -45 43 0 46
2 68 45 12 24 28 71 34 102 l12 58 41 0 c31 0 117 -33 341 -130 164 -71 305
-130 313 -130 11 0 13 15 7 77 -3 42 -6 86 -6 98 0 16 -85 104 -309 318 l-309
296 18 88 c10 49 29 162 41 253 21 149 23 214 27 652 l3 488 274 0 274 0 403
-176 c916 -401 977 -433 1146 -589 36 -33 66 -54 73 -50 28 18 -14 164 -76
260 -69 108 -184 209 -819 720 -581 467 -643 520 -633 536 7 11 19 19 29 19 9
0 26 12 37 26 20 25 21 39 21 235 0 205 0 208 -24 236 l-24 28 -131 0 c-179 0
-174 5 -181 -197 l-5 -151 -185 149 -185 149 -6 455 c-7 495 -15 594 -60 828
-49 247 -119 372 -209 372 -23 0 -48 -8 -64 -21z"/>
</g>
</svg>
