<?xml version="1.0" encoding="utf-8"?>
<svg viewBox="0 0 200 200" xmlns="http://www.w3.org/2000/svg" xmlns:bx="https://boxy-svg.com">
  <defs>
    <bx:grid x="0" y="0" width="14.286" height="14.3"/>
  </defs>
  <g id="Thin-L" transform="matrix(0, -1.526083, 1.526083, 0, 154.197083, 247.503403)">
    <path d="M 143.535 -82.319 C 143.535 -82.819 134.164 -82.319 134.164 -82.319 C 134.164 -82.319 136.37 -89.474 134.164 -91.68 C 130.987 -94.857 109.502 -95.129 106.053 -91.68 C 103.847 -89.474 106.053 -82.319 106.053 -82.319 L 87.312 -82.319 C 87.312 -82.319 89.518 -89.474 87.312 -91.68 C 83.747 -95.245 62.262 -94.741 59.201 -91.68 C 56.995 -89.474 59.201 -82.319 59.201 -82.319 L 40.46 -82.319 C 40.367 -82.419 40.46 -54.235 40.46 -54.235 L 96.683 -44.874 L 96.683 -26.151 L 40.46 -16.79 L 40.46 11.294 L 59.201 11.294 C 59.201 11.294 56.995 18.449 59.201 20.655 C 62.344 23.798 83.829 24.138 87.312 20.655 C 89.518 18.449 87.312 11.294 87.312 11.294 C 107.852 11.294 106.053 11.294 106.053 11.294 C 106.053 11.294 103.847 18.449 106.053 20.655 C 109.208 23.81 130.693 24.126 134.164 20.655 C 136.37 18.449 134.164 11.294 134.164 11.294 L 143.535 11.294 L 143.535 -7.429 L 152.905 -7.429 L 152.905 -63.596 L 143.535 -63.596 C 143.535 -63.596 143.535 -81.196 143.535 -82.319 Z"/>
  </g>
</svg>