<?xml version="1.0" encoding="utf-8"?>
<svg version="1.0" width="512.000000pt" height="512.000000pt" viewBox="0 0 512.000000 512.000000" preserveAspectRatio="xMidYMid meet" xmlns="http://www.w3.org/2000/svg">
  <path d="M 250.857 65.688 C 249.764 66.371 247.17 68.555 245.122 70.558 C 241.618 73.971 241.163 74.608 237.886 81.253 C 231.879 93.495 226.599 110.425 224.369 124.488 C 221.593 142.465 221.593 142.42 221.684 163.628 C 221.821 189.387 221.457 196.532 219.864 200.446 C 218.726 203.313 217.452 204.679 215.404 205.27 C 214.675 205.452 214.038 205.179 213.037 204.178 C 211.626 202.813 211.581 202.585 210.761 195.713 C 210.488 193.437 210.079 190.206 209.806 188.477 C 209.26 184.426 209.533 181.514 210.716 179.921 L 211.626 178.646 L 208.804 177.873 C 206.756 177.281 205.846 176.735 205.346 175.87 C 204.526 174.505 198.701 170.454 197.518 170.454 C 196.334 170.454 190.509 174.505 189.69 175.87 C 189.189 176.735 188.279 177.281 186.186 177.873 C 183.455 178.646 183.364 178.737 184.046 179.511 C 184.957 180.512 184.957 180.922 184.092 180.922 C 183.682 180.922 183.546 181.195 183.682 181.605 C 183.864 181.969 184.32 182.287 184.82 182.287 C 185.548 182.287 185.639 182.651 185.412 186.383 C 185.321 188.613 185.002 190.98 184.775 191.572 C 184.547 192.163 184.229 194.484 184.092 196.714 C 183.728 201.629 183.182 203.541 181.907 204.224 C 181.179 204.633 176.674 204.861 166.434 204.952 L 152.007 205.134 L 151.37 203.632 C 151.051 202.767 150.641 200.173 150.459 197.852 C 150.277 195.531 149.959 193.073 149.686 192.391 C 149.413 191.708 149.185 189.205 149.14 186.747 C 149.049 182.833 149.14 182.196 150.095 180.967 L 151.097 179.557 L 148.275 178.783 C 146.227 178.191 145.317 177.645 144.77 176.78 C 144.406 176.098 142.586 174.596 140.766 173.367 C 138.945 172.138 137.443 171.001 137.443 170.819 C 137.443 169.226 129.206 173.959 127.84 176.325 C 127.294 177.19 126.384 177.736 124.291 178.328 C 121.651 179.056 121.469 179.193 122.061 179.921 C 123.38 181.514 123.699 183.106 123.517 186.975 C 123.426 189.159 123.107 191.435 122.88 192.027 C 122.652 192.664 122.334 195.076 122.152 197.397 C 121.969 199.718 121.605 202.267 121.287 203.086 C 120.604 204.724 120.604 204.724 107.497 205.498 C 103.401 205.725 99.897 206.044 99.669 206.181 C 99.442 206.317 89.384 206.636 77.278 206.863 C 65.172 207.091 52.52 207.5 49.152 207.773 C 45.784 208.047 37.046 208.456 29.764 208.684 C 15.61 209.139 12.607 209.548 8.875 211.551 C 8.374 211.824 7.327 212.37 6.554 212.734 C 4.961 213.553 2.731 215.965 1.684 218.059 C 0.546 220.289 0 224.749 0 232.122 C 0.046 239.677 0.774 244.501 2.139 246.367 C 2.64 247.049 3.504 248.415 4.005 249.416 C 4.915 251.191 6.781 252.966 9.102 254.195 C 10.604 255.014 13.062 255.378 27.762 256.88 C 30.128 257.153 33.724 257.562 35.726 257.79 C 37.729 258.063 41.415 258.473 43.918 258.746 C 56.479 260.111 59.665 260.521 60.393 260.748 C 62.168 261.34 76.868 263.297 81.419 263.57 C 84.059 263.752 87.063 264.162 88.018 264.526 C 89.793 265.117 96.119 265.982 107.725 267.165 C 111.047 267.484 113.914 267.848 114.096 267.984 C 114.551 268.303 129.524 270.306 140.174 271.489 C 144.816 271.989 150.459 272.718 152.735 273.082 C 155.01 273.446 164.204 274.447 173.215 275.357 C 182.181 276.267 190.281 277.178 191.146 277.405 C 192.011 277.678 197.063 277.86 202.296 277.906 C 207.576 277.906 213.629 278.088 215.813 278.27 C 223.277 278.907 223.049 277.997 223.505 309.946 C 223.732 327.968 224.051 336.615 224.551 340.893 C 224.961 344.124 225.279 348.22 225.279 349.995 C 225.279 351.907 225.553 353.682 225.962 354.501 C 226.736 355.957 226.872 357.186 226.144 356.139 C 225.78 355.639 225.78 356.503 226.008 359.098 C 226.645 365.469 226.554 366.834 225.279 368.2 C 223.823 369.747 220.819 371.294 217.315 372.25 C 213.31 373.342 208.577 374.753 205.482 375.755 C 203.98 376.21 200.612 377.12 197.973 377.712 C 195.333 378.349 192.375 379.122 191.374 379.486 C 190.373 379.851 188.552 380.26 187.278 380.488 C 186.049 380.67 184.456 381.079 183.773 381.443 C 183.091 381.807 181.998 382.081 181.361 382.081 C 180.724 382.081 179.45 382.399 178.494 382.809 C 176.537 383.628 171.303 385.175 165.432 386.632 C 157.923 388.498 152.598 392.457 151.643 396.917 C 150.641 401.605 150.505 405.519 151.233 408.067 C 152.28 411.617 154.601 415.668 156.012 416.396 C 156.694 416.76 157.65 417.443 158.105 417.989 C 158.606 418.535 159.197 418.944 159.425 418.944 C 159.698 418.944 160.244 419.218 160.608 419.582 C 161.61 420.492 166.343 422.13 169.301 422.585 C 170.666 422.813 175.172 423.405 179.313 423.951 C 183.455 424.451 188.37 425.088 190.236 425.316 C 192.102 425.589 196.926 425.953 200.931 426.226 C 219.09 427.318 232.379 428.729 235.519 429.913 C 238.068 430.868 240.708 433.326 242.938 436.921 C 243.711 438.196 245.077 439.88 245.987 440.653 C 246.852 441.427 247.58 442.474 247.58 442.929 C 247.625 443.93 254.498 448.527 255.999 448.527 C 257.501 448.527 264.373 443.93 264.419 442.929 C 264.419 442.474 265.147 441.427 266.012 440.653 C 266.922 439.88 268.287 438.196 269.061 436.921 C 271.291 433.326 273.931 430.868 276.479 429.913 C 279.62 428.729 292.909 427.318 311.068 426.226 C 315.073 425.953 319.897 425.589 321.763 425.316 C 323.629 425.088 328.544 424.451 332.685 423.951 C 336.827 423.405 341.332 422.813 342.698 422.585 C 345.656 422.13 350.389 420.492 351.39 419.582 C 351.755 419.218 352.301 418.944 352.574 418.944 C 352.801 418.944 353.393 418.535 353.894 417.989 C 354.349 417.443 355.304 416.76 355.987 416.396 C 357.398 415.668 359.719 411.617 360.766 408.067 C 361.494 405.519 361.357 401.605 360.356 396.917 C 359.4 392.457 354.076 388.498 346.566 386.632 C 340.695 385.175 335.462 383.628 333.505 382.809 C 332.549 382.399 331.275 382.081 330.637 382.081 C 330 382.081 328.908 381.807 328.225 381.443 C 327.543 381.079 325.95 380.67 324.721 380.488 C 323.447 380.26 321.626 379.851 320.625 379.486 C 319.624 379.122 316.666 378.349 314.026 377.712 C 311.386 377.12 308.018 376.21 306.517 375.755 C 303.422 374.753 298.689 373.342 294.684 372.25 C 291.179 371.294 288.176 369.747 286.719 368.2 C 285.445 366.834 285.354 365.469 285.991 359.098 C 286.219 356.503 286.219 355.639 285.855 356.139 C 285.126 357.186 285.263 355.957 286.037 354.501 C 286.446 353.682 286.719 351.907 286.719 349.995 C 286.719 348.22 287.038 344.124 287.447 340.893 C 287.948 336.615 288.267 327.968 288.494 309.946 C 288.949 277.997 288.722 278.907 296.186 278.27 C 298.37 278.088 304.469 277.906 309.702 277.906 C 314.982 277.86 319.988 277.678 320.853 277.405 C 321.717 277.178 329.818 276.267 338.784 275.357 C 347.795 274.447 356.988 273.446 359.264 273.082 C 361.539 272.718 367.183 271.989 371.825 271.489 C 382.474 270.306 397.448 268.303 397.903 267.984 C 398.085 267.848 400.952 267.484 404.274 267.165 C 415.88 265.982 422.206 265.117 423.98 264.526 C 424.936 264.162 427.94 263.752 430.58 263.57 C 435.131 263.297 449.831 261.34 451.606 260.748 C 452.334 260.521 455.52 260.111 468.081 258.746 C 470.584 258.473 474.27 258.063 476.273 257.79 C 478.275 257.562 481.825 257.153 484.146 256.925 C 498.892 255.378 501.395 255.014 502.897 254.195 C 505.218 252.966 507.084 251.191 507.994 249.416 C 508.494 248.415 509.359 247.049 509.86 246.367 C 511.225 244.501 511.953 239.677 511.999 232.122 C 511.999 224.749 511.453 220.289 510.315 218.059 C 509.268 215.965 507.038 213.553 505.445 212.734 C 504.671 212.37 503.625 211.824 503.124 211.551 C 499.392 209.548 496.388 209.139 482.235 208.684 C 474.953 208.456 466.215 208.047 462.847 207.773 C 459.479 207.5 446.827 207.091 434.721 206.863 C 422.615 206.636 412.557 206.317 412.33 206.181 C 412.102 206.044 408.598 205.725 404.502 205.498 C 391.395 204.724 391.395 204.724 390.712 203.086 C 390.393 202.267 390.029 199.718 389.847 197.397 C 389.665 195.076 389.347 192.664 389.119 192.027 C 388.891 191.435 388.573 189.159 388.482 186.975 C 388.3 183.106 388.618 181.514 389.938 179.921 C 390.53 179.193 390.348 179.056 387.708 178.328 C 385.615 177.736 384.704 177.19 384.158 176.325 C 382.793 173.959 374.556 169.226 374.556 170.819 C 374.556 171.001 373.054 172.138 371.233 173.367 C 369.413 174.596 367.592 176.098 367.228 176.78 C 366.682 177.645 365.772 178.191 363.724 178.783 L 360.902 179.557 L 361.903 180.967 C 362.859 182.196 362.95 182.833 362.859 186.747 C 362.814 189.205 362.586 191.708 362.313 192.391 C 362.04 193.073 361.721 195.531 361.539 197.852 C 361.357 200.173 360.948 202.767 360.629 203.632 L 359.992 205.134 L 345.565 204.952 C 335.189 204.861 330.819 204.633 330.091 204.224 C 328.862 203.541 328.362 201.766 327.725 195.941 C 327.452 193.574 327.042 190.206 326.769 188.477 C 326.223 184.426 326.496 181.514 327.679 179.921 L 328.589 178.646 L 325.768 177.873 C 323.72 177.281 322.81 176.735 322.309 175.87 C 321.49 174.505 315.664 170.454 314.481 170.454 C 313.298 170.454 307.472 174.505 306.653 175.87 C 306.152 176.735 305.242 177.281 303.194 177.873 L 300.373 178.646 L 301.283 179.921 C 302.466 181.514 302.739 184.426 302.193 188.477 C 301.92 190.206 301.51 193.437 301.237 195.713 C 300.418 202.585 300.373 202.813 298.962 204.178 C 297.961 205.179 297.323 205.452 296.595 205.27 C 294.547 204.679 293.273 203.313 292.135 200.446 C 290.542 196.532 290.178 189.387 290.315 163.628 C 290.406 142.42 290.406 142.465 287.63 124.488 C 285.399 110.425 280.12 93.495 274.113 81.253 C 270.836 74.654 270.381 73.971 266.877 70.558 C 261.552 65.37 259.822 64.414 255.954 64.414 C 253.314 64.414 252.495 64.641 250.857 65.688 Z"/>
</svg>