<svg version="1.0" width="682.667" height="682.667" viewBox="0 0 512 512" xmlns="http://www.w3.org/2000/svg">
    <path d="m253.8 78.5-1.1 2.5h-22.4c-19.2 0-22.3.2-22.3 1.5s3.1 1.5 21.5 1.5c11.8 0 21.5.3 21.5.7 0 .5-.9 2.2-1.9 3.9-1.4 2.3-2.9 3.3-5.8 3.7-4.8.8-8.2 4.2-8.9 8.8-.4 3.3-3.4 50-3.4 54 0 1.9-1.3 1.9-49.7 1.9-56.1.1-172.4 3.9-176.1 5.9-5 2.7-5.2 3.9-5.2 30.2v24.6l5.8.6c3.1.3 36.9 5.1 75 10.7l69.3 10h83.5l6.6 57.2c3.6 31.5 6.5 57.4 6.4 57.5-.1.1-13.4 2.5-29.6 5.2-37.5 6.4-36.4 6.1-38.4 11.1-2.9 7.3-1.6 25.4 2.2 30 1.4 1.7 5.9 2.6 29.2 6 15.1 2.2 28.3 4 29.2 4 1.2 0 3.2-2.8 6.2-8.8 2.6-5.2 4.6-8.1 4.9-7.2.3.8 1.2 10.5 2.1 21.4.9 11 2 20.4 2.6 21 2.2 2.2 3.1-1.7 4.6-21 .9-10.9 1.8-20.6 2.1-21.4.3-.9 2.3 2 4.9 7.2 3 6 5 8.8 6.2 8.8.9 0 14.1-1.8 29.2-4 23.3-3.4 27.8-4.3 29.2-6 3.8-4.6 5.1-22.7 2.2-30-2-5-.9-4.7-38.4-11.1-16.2-2.7-29.5-5.1-29.6-5.2-.1-.1 2.8-26 6.4-57.5l6.6-57.2h83.5l69.3-10c38.1-5.6 71.9-10.4 75.1-10.7l5.7-.6v-24.6c0-26.3-.2-27.5-5.2-30.2-3.7-2-120-5.8-176-5.9-48.5 0-49.8 0-49.8-1.9 0-4-3-50.7-3.4-54-.7-4.6-4.1-8-8.9-8.8-2.9-.4-4.4-1.4-5.8-3.7-1-1.7-1.9-3.4-1.9-3.9 0-.4 9.7-.7 21.5-.7 18.4 0 21.5-.2 21.5-1.5s-3.1-1.5-22.3-1.5h-22.4l-1.1-2.5c-.6-1.4-1.6-2.5-2.2-2.5-.6 0-1.6 1.1-2.2 2.5Z"/>
</svg>
