<?xml version="1.0" standalone="no"?>
<!DOCTYPE svg PUBLIC "-//W3C//DTD SVG 20010904//EN"
 "http://www.w3.org/TR/2001/REC-SVG-20010904/DTD/svg10.dtd">
<svg version="1.0" xmlns="http://www.w3.org/2000/svg"
 width="512.000000pt" height="512.000000pt" viewBox="0 0 512.000000 512.000000"
 preserveAspectRatio="xMidYMid meet">

<g transform="translate(0.000000,512.000000) scale(0.100000,-0.100000)"
fill="#000000" stroke="none">
<path d="M2508 5083 c-64 -68 -104 -159 -145 -328 -15 -62 -17 -171 -22 -959
l-6 -888 -636 -387 c-350 -212 -646 -393 -657 -401 -19 -13 -25 -36 -42 -145
-11 -71 -20 -133 -20 -137 0 -20 28 -4 53 31 29 38 30 38 470 180 l442 141
198 0 197 0 0 -351 c0 -331 -1 -351 -17 -343 -31 13 -120 16 -143 4 -31 -17
-42 -54 -42 -150 0 -68 8 -114 41 -235 22 -82 45 -170 52 -195 l11 -45 27 31
26 30 71 -34 71 -35 27 -150 c25 -142 26 -150 9 -163 -10 -7 -142 -100 -294
-206 l-277 -193 -6 -74 c-4 -40 -5 -76 -1 -79 3 -3 141 38 308 90 298 95 302
96 323 77 26 -24 42 -24 68 0 21 19 25 18 323 -77 167 -52 305 -93 308 -90 4
3 3 39 -1 79 l-6 74 -277 193 c-152 106 -284 199 -294 206 -17 13 -16 21 9
163 l27 150 71 35 71 34 26 -30 27 -31 11 45 c7 25 30 113 52 195 57 210 57
354 -1 385 -23 12 -112 9 -142 -4 -17 -8 -18 12 -18 343 l0 351 198 0 197 0
442 -141 c440 -142 441 -142 470 -180 25 -35 53 -51 53 -31 0 4 -9 66 -20 137
-17 110 -23 132 -42 145 -12 8 -308 189 -657 401 l-636 387 -6 888 c-5 788 -7
897 -22 959 -26 105 -56 195 -84 245 -32 56 -92 120 -113 120 -9 0 -32 -17
-52 -37z"/>
</g>
</svg>
