<?xml version="1.0" encoding="utf-8"?>
<svg version="1.0" width="512.000000pt" height="512.000000pt" viewBox="0 0 512.000000 512.000000" preserveAspectRatio="xMidYMid meet" xmlns="http://www.w3.org/2000/svg">
  <path d="M 8.407 176.994 C 10.999 173.366 22.401 171.293 72.415 165.851 C 105.845 162.482 139.533 158.336 146.789 156.781 L 160.524 154.449 L 160.783 142.269 C 160.783 135.532 162.337 125.424 164.152 119.723 C 166.484 111.431 168.298 109.358 173.481 109.358 C 178.664 109.358 180.478 111.431 182.81 119.723 C 184.624 125.424 186.179 135.532 186.179 142.269 L 186.438 154.708 L 204.578 154.708 L 222.717 154.708 L 222.717 102.88 C 222.717 53.383 222.977 50.274 229.196 34.725 C 237.748 13.994 247.077 0 252.519 0 C 257.961 0 267.291 13.994 275.842 34.725 C 282.062 50.274 282.321 53.383 282.321 102.88 L 282.321 154.708 L 299.165 154.708 L 316.009 154.708 L 316.268 142.269 C 316.268 135.532 317.823 125.424 319.637 119.723 C 321.97 111.431 323.783 109.358 328.967 109.358 C 334.149 109.358 335.963 111.431 338.295 119.723 C 340.109 125.424 341.665 136.05 341.665 143.306 L 341.924 156.522 L 363.173 158.336 C 375.094 159.372 409.042 163.001 439.102 166.369 C 497.927 173.107 500 173.884 500 188.915 C 500 194.097 498.186 196.948 494.299 198.762 C 487.821 201.353 431.846 206.018 376.39 208.35 L 341.924 209.905 L 341.924 216.643 C 341.924 226.749 337.258 241.78 332.853 245.408 C 326.893 250.332 319.119 239.965 317.045 224.677 L 315.232 211.72 L 299.165 211.72 L 283.098 211.72 L 281.544 264.066 C 279.729 313.303 275.324 355.025 269.622 374.201 C 266.772 384.308 266.772 384.308 298.646 388.195 C 326.116 391.824 328.707 393.896 328.967 412.037 C 328.967 422.92 328.189 424.735 322.229 426.808 C 313.677 430.176 191.362 430.176 182.81 426.808 C 176.849 424.735 176.072 422.92 176.072 411.259 C 176.072 394.674 180.219 392.083 210.797 387.936 C 223.754 386.382 234.898 384.567 235.934 383.79 C 236.97 383.272 236.711 378.866 235.416 374.201 C 229.714 355.025 225.309 313.303 223.495 264.066 L 221.94 211.72 L 204.578 211.72 L 187.216 211.72 L 185.401 224.418 C 184.365 231.414 181.514 239.706 178.923 243.076 L 174.259 248.777 L 168.816 243.335 C 165.447 239.965 162.596 232.969 161.56 224.936 C 159.487 209.905 160.783 210.424 120.357 208.091 C 61.272 204.723 16.181 200.835 10.739 198.762 C 4.261 195.912 2.965 184.51 8.407 176.994 Z"/>
</svg>