<?xml version="1.0" standalone="no"?>
<!DOCTYPE svg PUBLIC "-//W3C//DTD SVG 20010904//EN"
 "http://www.w3.org/TR/2001/REC-SVG-20010904/DTD/svg10.dtd">
<svg version="1.0" xmlns="http://www.w3.org/2000/svg"
 width="512.000000pt" height="512.000000pt" viewBox="0 0 512.000000 512.000000"
 preserveAspectRatio="xMidYMid meet">

<g transform="translate(0.000000,512.000000) scale(0.100000,-0.100000)"
fill="#000000" stroke="none">
<path d="M2518 5102 c-61 -40 -106 -129 -139 -279 -22 -95 -23 -120 -28 -917
l-6 -820 -125 -48 c-69 -26 -141 -54 -161 -62 l-36 -15 14 52 c18 64 13 220
-8 262 -21 43 -52 55 -154 55 -102 0 -130 -11 -158 -57 -45 -77 -27 -281 29
-331 14 -12 26 -34 27 -48 2 -26 -10 -31 -692 -295 -764 -295 -743 -284 -781
-387 -21 -56 -42 -210 -29 -217 3 -3 18 18 33 45 39 72 72 96 145 103 69 7
493 91 992 196 l337 71 270 0 270 0 11 -31 c8 -22 11 -231 11 -663 0 -619 1
-634 25 -801 13 -94 31 -193 39 -219 8 -27 13 -53 10 -58 -6 -10 -130 -101
-401 -296 l-211 -152 -16 -67 c-8 -37 -14 -68 -13 -69 1 -2 158 36 349 84 191
48 349 84 352 82 2 -3 13 -52 23 -110 l19 -105 44 0 44 0 19 105 c10 58 21
107 23 110 3 2 161 -34 352 -82 191 -48 348 -86 349 -84 1 1 -5 32 -13 69
l-16 67 -211 152 c-271 195 -395 286 -401 296 -3 5 2 31 10 58 8 26 26 125 39
219 24 167 25 182 25 801 0 432 3 641 11 663 l11 31 269 0 270 0 457 -94 c251
-52 556 -113 677 -136 121 -23 230 -47 243 -53 12 -6 46 -39 74 -73 29 -34 55
-61 58 -59 12 7 -10 163 -30 217 -38 103 -17 92 -781 387 -682 264 -694 269
-692 295 1 14 13 36 27 48 56 50 74 254 29 331 -28 46 -56 57 -158 57 -102 0
-133 -12 -154 -55 -21 -42 -26 -198 -8 -262 l14 -52 -36 15 c-20 8 -92 36
-161 62 l-125 48 -6 820 c-5 797 -6 822 -28 917 -23 104 -57 191 -91 235 -25
32 -69 62 -90 62 -8 0 -27 -8 -42 -18z"/>
</g>
</svg>
