<?xml version="1.0" standalone="no"?>
<!DOCTYPE svg PUBLIC "-//W3C//DTD SVG 20010904//EN"
 "http://www.w3.org/TR/2001/REC-SVG-20010904/DTD/svg10.dtd">
<svg version="1.0" xmlns="http://www.w3.org/2000/svg"
 width="512.000000pt" height="512.000000pt" viewBox="0 0 512.000000 512.000000"
 preserveAspectRatio="xMidYMid meet">

<g transform="translate(0.000000,512.000000) scale(0.100000,-0.100000)"
fill="#000000" stroke="none">
<path d="M2509 5083 c-90 -104 -148 -333 -169 -673 -5 -91 -10 -475 -10 -855
l0 -690 -778 -364 c-600 -280 -784 -371 -810 -397 -31 -33 -32 -36 -32 -124 0
-53 4 -90 10 -90 5 0 126 27 267 60 142 33 393 83 558 111 l300 51 175 -11
c96 -6 203 -14 238 -17 l62 -6 0 -254 c0 -140 -3 -254 -7 -254 -5 1 -17 15
-28 32 -23 37 -47 46 -133 47 -54 1 -66 -2 -87 -24 l-25 -24 0 -272 c0 -278 7
-346 46 -421 14 -26 19 -28 79 -28 l65 0 28 49 c27 48 28 49 54 35 22 -12 28
-23 33 -71 13 -109 46 -266 70 -329 l24 -63 -52 -19 c-29 -11 -142 -50 -252
-87 -132 -45 -209 -77 -227 -93 -31 -29 -53 -91 -63 -175 l-6 -57 33 0 c18 0
157 20 308 45 151 25 279 44 286 41 6 -2 17 -24 23 -49 18 -64 47 -107 71
-107 24 0 53 43 71 107 6 25 17 47 23 49 7 3 135 -16 286 -41 151 -25 290 -45
308 -45 l33 0 -6 57 c-10 84 -32 146 -63 175 -18 17 -103 50 -257 103 -126 43
-240 82 -252 86 l-22 8 24 64 c24 64 57 220 70 330 5 48 11 59 33 71 26 14 27
13 54 -35 l28 -49 65 0 c61 0 65 1 80 30 36 70 45 148 45 423 l0 268 -25 24
c-21 22 -33 25 -87 24 -86 -1 -110 -10 -133 -47 -11 -17 -23 -31 -27 -32 -5 0
-8 114 -8 254 l0 254 63 6 c34 3 141 11 237 17 l175 11 300 -51 c165 -28 416
-78 558 -111 141 -33 262 -60 267 -60 6 0 10 37 10 90 0 88 -1 91 -32 124 -26
26 -210 117 -810 397 l-778 364 0 690 c0 861 -11 1056 -70 1288 -37 144 -114
277 -160 277 -10 0 -33 -17 -51 -37z"/>
</g>
</svg>
