<?xml version="1.0" standalone="no"?>
<!DOCTYPE svg PUBLIC "-//W3C//DTD SVG 20010904//EN"
 "http://www.w3.org/TR/2001/REC-SVG-20010904/DTD/svg10.dtd">
<svg version="1.0" xmlns="http://www.w3.org/2000/svg"
 width="512.000000pt" height="512.000000pt" viewBox="0 0 512.000000 512.000000"
 preserveAspectRatio="xMidYMid meet">

<g transform="translate(0.000000,512.000000) scale(0.100000,-0.100000)"
fill="#000000" stroke="none">
<path d="M2495 5079 c-59 -54 -99 -120 -135 -218 -62 -171 -63 -183 -69 -1005
l-6 -749 -190 -84 c-377 -168 -772 -317 -1200 -454 -233 -74 -328 -156 -337
-290 l-3 -44 90 -3 c92 -3 465 12 1173 49 221 12 409 18 417 15 8 -3 15 -16
15 -29 0 -12 9 -40 20 -62 18 -35 20 -58 19 -200 -1 -139 -2 -155 -12 -118
-21 74 -37 83 -143 83 -130 0 -124 16 -124 -338 0 -296 7 -350 51 -406 17 -22
28 -26 69 -26 38 0 51 -4 63 -23 13 -20 17 -21 38 -8 19 11 28 10 69 -9 l47
-22 46 -271 c26 -149 45 -271 44 -272 -1 -1 -136 -82 -301 -181 -164 -98 -305
-189 -314 -202 -20 -31 -39 -189 -24 -204 9 -9 91 5 324 52 171 34 319 65 328
67 12 3 29 -12 54 -46 22 -29 46 -51 56 -51 10 0 34 22 56 51 29 39 41 49 58
45 136 -32 631 -126 643 -122 13 5 14 18 8 84 -11 131 -2 122 -335 323 -162
98 -298 180 -302 181 -4 2 13 125 39 275 l46 271 47 22 c41 19 50 20 69 9 21
-13 25 -12 38 8 12 19 25 23 63 23 41 0 52 4 69 26 44 56 51 110 51 406 0 354
6 338 -124 338 -106 0 -117 -6 -140 -81 -13 -42 -14 -35 -15 116 -1 142 1 165
19 200 11 22 20 50 20 62 0 13 7 26 15 29 8 3 196 -3 417 -15 708 -37 1081
-52 1173 -49 l90 3 -3 45 c-7 96 -62 169 -166 222 -33 16 -199 76 -370 133
-324 107 -678 244 -1001 388 l-190 84 -6 749 c-4 647 -7 761 -22 836 -21 108
-67 235 -107 298 -39 61 -113 130 -140 130 -11 0 -40 -18 -65 -41z"/>
</g>
</svg>
