<?xml version="1.0" encoding="utf-8"?>
<svg viewBox="0 0 200 200" xmlns="http://www.w3.org/2000/svg" xmlns:bx="https://boxy-svg.com">
  <defs>
    <bx:grid x="0" y="0" width="14.286" height="14.3"/>
  </defs>
  <g transform="matrix(1.068976, 0, 0, 1.185981, 14.763699, 14.145811)">
    <path style="stroke: rgb(0, 0, 0); stroke-width: 0px;" d="M 78.309 90.777 C 78.309 117.993 38.222 77.892 65.438 77.892 C 92.653 77.892 93.993 19.209 117.005 21.49 C 126.034 22.383 135.347 31.716 136.242 40.744 C 138.521 63.766 78.309 63.561 78.309 90.777 Z" transform="matrix(0.707107, -0.707107, 0.707107, 0.707107, -14.860118, 85.796529)"/>
    <path style="stroke: rgb(0, 0, 0); stroke-width: 0px;" d="M 112.354 144.442 C 112.354 171.658 72.267 131.557 99.483 131.557 C 126.698 131.557 128.038 72.874 151.05 75.155 C 160.079 76.048 169.392 85.381 170.287 94.409 C 172.566 117.431 112.354 117.226 112.354 144.442 Z" transform="matrix(0.258819, 0.965926, -0.965926, 0.258819, 207.086794, -40.878752)"/>
    <path style="stroke: rgb(0, 0, 0); stroke-width: 0px;" d="M 41.461 143.906 C 41.461 171.122 1.374 131.021 28.59 131.021 C 55.805 131.021 57.145 72.338 80.157 74.619 C 89.186 75.512 98.499 84.845 99.394 93.873 C 101.673 116.895 41.461 116.69 41.461 143.906 Z" transform="matrix(-0.965926, -0.258819, 0.258819, -0.965926, 87.058543, 239.391501)"/>
  </g>
</svg>