<?xml version="1.0" encoding="utf-8"?>
<svg viewBox="0 0 200 200" xmlns="http://www.w3.org/2000/svg" xmlns:bx="https://boxy-svg.com">
  <defs>
    <bx:grid x="0" y="0" width="14.408" height="14.408"/>
  </defs>
  <path style="stroke: rgb(0, 0, 0); stroke-width: 0px;" d="M 158.488 43.224 L 187.304 72.04 L 201.712 115.264 L 187.304 158.488 L 158.488 187.304 L 115.264 201.712 L 72.04 187.304 L 43.224 158.488 L 28.816 115.264 L 43.224 72.04 L 72.04 43.224 L 115.264 28.816 Z M 115.724 55.012 C 115.057 55.012 114.664 55.481 113.324 59.258 C 113.164 59.702 112.848 61.595 112.848 61.595 C 112.848 61.595 111.781 61.651 111.5 61.643 C 110.969 61.643 110.243 62.143 109.88 62.737 C 108.76 64.599 107.004 74.825 107.004 79.547 C 107.006 82.473 106.761 84.224 106.322 84.583 C 105.945 84.881 103.984 85.796 101.964 86.616 C 98.39 88.071 97.506 88.156 71.705 89.572 C 51.279 90.706 44.845 91.237 43.892 91.863 C 41.227 93.614 41.085 97.656 43.421 105.295 L 44.632 109.236 L 107.518 119.988 L 112.801 159.925 L 111.402 160.325 C 110.63 160.543 105.476 161.13 99.935 161.631 C 94.395 162.131 89.552 162.803 89.165 163.124 C 87.629 164.445 88.841 174.844 90.536 174.844 C 93.199 174.845 103.084 176.221 103.599 176.658 C 103.969 176.98 112.454 178.161 115.723 178.16 C 119 178.151 127.485 176.972 127.855 176.665 C 128.376 176.221 138.254 174.853 140.926 174.845 C 142.614 174.853 143.825 164.454 142.281 163.125 C 141.903 162.795 137.059 162.124 131.526 161.631 C 125.978 161.138 120.825 160.551 120.052 160.333 L 118.659 159.925 L 123.942 119.988 L 186.814 109.236 L 188.025 105.296 C 190.371 97.649 190.234 93.615 187.571 91.863 C 186.601 91.237 180.175 90.697 159.748 89.581 C 133.955 88.155 133.055 88.07 129.49 86.625 C 127.47 85.803 125.501 84.882 125.131 84.576 C 124.684 84.223 124.451 82.465 124.45 79.54 C 124.45 74.832 122.7 64.598 121.567 62.737 C 121.211 62.136 120.483 61.65 119.954 61.649 C 119.674 61.642 118.63 61.596 118.63 61.596 C 118.63 61.596 118.304 59.695 118.145 59.251 C 116.806 55.489 116.388 55.013 115.724 55.012 Z"/>
</svg>