<?xml version="1.0" encoding="utf-8"?>
<svg version="1.0" width="512.000000pt" height="512.000000pt" viewBox="0 0 512.000000 512.000000" preserveAspectRatio="xMidYMid meet" xmlns="http://www.w3.org/2000/svg">
  <path d="M 251.774 0.568 C 247.737 1.991 246.223 4.881 240.901 20.937 C 236.726 33.599 234.203 43.371 231.909 56.078 L 230.258 65.254 L 229.891 88.65 C 229.432 115.809 228.652 149.023 228.285 155.629 L 228.01 160.217 L 225.854 162.419 C 224.661 163.658 222.275 165.722 220.486 167.052 C 217 169.667 191.034 187.834 171.628 201.276 C 164.93 205.909 156.168 212.011 152.131 214.809 C 144.607 220.085 105.062 247.427 93.18 255.547 C 89.51 258.07 81.253 263.759 74.83 268.209 C 68.407 272.705 55.195 281.834 45.469 288.532 L 27.807 300.735 L 22.394 306.745 C 16.43 313.305 15.054 315.737 11.062 326.517 C 9.503 330.738 9.09 332.435 9.044 335.004 C 8.998 337.757 9.09 338.216 9.87 338.353 C 10.328 338.445 11.567 337.94 12.622 337.206 C 13.631 336.472 15.833 335.096 17.485 334.225 C 23.724 330.784 43.818 320.875 47.442 319.452 C 53.039 317.205 81.069 305.552 97.768 298.533 C 102.677 296.469 111.072 292.982 116.348 290.734 C 134.515 283.119 143.415 279.357 152.131 275.595 C 162.086 271.283 162.683 271.099 171.399 269.172 C 199.246 262.979 216.22 259.86 221.037 260.089 L 224.156 260.227 L 224.982 263.897 C 225.533 266.374 225.854 269.815 225.9 274.448 L 225.991 281.33 L 219.706 281.559 C 213.513 281.788 213.421 281.788 211.953 283.165 C 211.173 283.899 209.889 285.458 209.201 286.559 L 207.87 288.624 L 207.87 298.028 C 207.87 321.609 210.99 339.821 215.761 344.455 C 217.642 346.244 220.716 347.987 224.294 349.272 C 226.45 350.052 229.111 351.474 231.038 352.942 C 235.717 356.383 235.809 356.52 234.02 358.034 C 231.175 360.466 211.219 375.651 190.346 391.294 L 169.38 407.03 L 169.335 419.049 C 169.335 425.793 169.518 431.573 169.793 432.216 C 170.16 433.271 170.481 433.408 172.317 433.408 C 173.693 433.408 174.84 433.087 175.665 432.491 C 178.464 430.427 224.065 411.893 237.506 407.305 C 243.654 405.241 243.378 405.149 244.938 410.149 C 247.003 416.664 247.37 417.214 249.939 417.673 C 252.829 418.132 260.261 418.132 263.059 417.673 C 265.628 417.214 265.995 416.618 268.06 410.149 C 269.62 405.149 269.344 405.241 275.492 407.305 C 288.933 411.893 334.534 430.427 337.332 432.491 C 338.158 433.087 339.305 433.408 340.681 433.408 C 342.516 433.408 342.838 433.271 343.205 432.216 C 343.48 431.573 343.663 425.793 343.663 419.049 L 343.618 407.03 L 322.652 391.294 C 301.779 375.651 281.823 360.466 278.978 358.034 C 277.189 356.52 277.281 356.383 281.96 352.942 C 283.887 351.474 286.548 350.052 288.704 349.272 C 292.282 347.987 295.356 346.244 297.237 344.455 C 302.008 339.821 305.128 321.609 305.128 298.028 L 305.128 288.624 L 303.797 286.559 C 303.109 285.458 301.824 283.899 301.045 283.165 C 299.577 281.788 299.485 281.788 293.292 281.559 L 287.007 281.33 L 287.098 274.448 C 287.144 269.815 287.465 266.374 288.016 263.897 L 288.842 260.227 L 291.961 260.089 C 296.778 259.86 313.752 262.979 341.599 269.172 C 350.315 271.099 350.912 271.283 360.867 275.595 C 369.583 279.357 378.483 283.119 396.65 290.734 C 401.972 292.982 410.321 296.469 415.23 298.533 C 431.929 305.552 459.959 317.205 465.556 319.452 C 469.18 320.875 489.274 330.784 495.513 334.225 C 497.164 335.096 499.367 336.472 500.376 337.206 C 501.431 337.94 502.67 338.445 503.128 338.353 C 503.908 338.216 504 337.757 503.954 335.004 C 503.908 332.435 503.495 330.738 501.936 326.517 C 497.944 315.737 496.568 313.305 490.604 306.745 L 485.191 300.735 L 467.529 288.532 C 457.803 281.834 444.591 272.705 438.168 268.209 C 431.745 263.759 423.488 258.07 419.818 255.547 C 407.936 247.427 368.391 220.085 360.867 214.809 C 356.83 212.011 348.067 205.909 341.37 201.276 C 321.964 187.834 295.998 169.667 292.512 167.052 C 290.768 165.722 288.337 163.658 287.144 162.419 L 284.988 160.217 L 284.713 155.629 C 284.346 149.023 283.566 115.809 283.107 88.65 L 282.74 65.254 L 281.089 56.078 C 278.795 43.371 276.272 33.599 272.097 20.937 C 266.683 4.514 265.032 1.532 260.72 0.339 C 258.38 -0.303 253.884 -0.212 251.774 0.568 Z"/>
</svg>