<?xml version="1.0" encoding="utf-8"?>
<svg version="1.0" width="512.000000pt" height="512.000000pt" viewBox="0 0 512.000000 512.000000" preserveAspectRatio="xMidYMid meet" xmlns="http://www.w3.org/2000/svg" xmlns:bx="https://boxy-svg.com">
  <path d="M 248.804 5.22 C 247.991 6.278 241.897 19.632 241.897 19.632 C 241.897 19.632 238.755 29.274 238.485 29.853 C 237.782 31.345 237.886 32.073 237.387 34.375 C 237.136 35.534 236.805 37.565 236.333 39.864 C 235.806 42.435 235.635 44.694 235.016 49.48 C 234.385 54.362 234.433 55.656 233.875 57.427 C 233.396 58.945 232.996 60.457 232.777 70.205 C 232.469 83.422 232.469 80.128 232.821 110.996 C 232.952 124.652 232.952 137.474 232.777 139.449 C 232.469 143.05 232.426 143.138 231.064 143.709 C 230.318 144.06 76.197 242.065 73.826 243.777 C 71.236 245.709 68.338 248.519 67.723 249.749 C 67.372 250.364 67.02 252.34 66.845 254.14 C 66.449 258.662 60.697 275.48 60.61 280.046 C 60.566 285.491 61.005 287.203 62.629 287.73 C 63.815 288.081 64.605 287.555 69.304 283.251 C 73.738 279.212 76.329 277.719 79.973 277.016 C 81.422 276.709 204.763 244.304 207.397 244.129 L 211.042 243.909 L 211.086 250.012 C 211.174 268.366 211.437 266.841 212.096 277.104 C 212.206 278.83 213.106 282.768 213.501 296.951 C 213.676 302.264 213.984 306.962 214.159 307.357 C 214.95 308.85 216.091 309.07 219.033 308.323 C 222.59 307.401 227.288 307.665 229.747 308.938 C 232.118 310.124 234.753 312.934 236.904 316.534 C 238.88 319.828 241.602 336.777 241.822 341.036 C 241.998 343.846 245.554 361.717 245.423 362.156 C 245.159 363.122 241.602 366.547 240.856 366.547 C 240.197 366.547 197.21 396.537 196.376 397.02 C 193.434 398.82 187.419 404.879 187.111 407.163 C 186.936 408.348 186.804 409.665 186.848 410.017 C 186.848 410.368 186.892 426.087 187.331 427.141 C 188.473 429.864 190.844 429.995 195.893 427.756 C 197.825 426.878 244.105 410.368 246.169 409.622 C 248.233 408.875 250.56 408.26 251.35 408.26 C 252.711 408.26 252.755 408.304 252.755 410.236 C 252.755 412.739 253.941 414.1 255.917 413.881 C 257.366 413.749 257.673 413.266 258.244 409.841 L 258.507 408.129 L 260.966 408.392 C 262.328 408.524 263.645 408.875 263.864 409.095 C 264.128 409.358 313.306 427.141 313.657 427.141 C 313.965 427.141 321.166 429.644 322.615 428.502 C 323.625 427.712 323.625 414.583 323.8 412.871 C 324.239 408.831 323.581 405.187 322 403.211 C 321.297 402.333 317.477 398.908 314.404 397.02 C 313.569 396.537 270.89 366.766 269.616 366.371 C 269.133 366.239 265.313 362.595 265.313 362.595 C 265.313 362.595 268.475 348.456 269.046 342.221 C 269.265 339.279 272.471 320.179 273.7 317.764 C 275.412 314.339 279.364 310.08 281.955 308.85 C 284.458 307.665 289.463 307.401 292.273 308.323 C 294.952 309.202 295.962 308.982 296.62 307.357 C 296.884 306.699 297.411 300.025 297.762 292.516 C 298.157 285.008 298.64 278.202 298.904 277.368 C 299.167 276.533 299.475 268.849 299.606 259.892 L 299.87 243.953 L 303.646 244.172 C 306.324 244.304 428.347 276.402 430.192 276.709 C 435.241 277.631 437.92 279.124 441.871 283.164 C 446.965 288.389 448.633 289.047 449.775 286.325 C 450.785 283.866 450.39 275.655 449.16 273.24 C 447.316 269.596 445.516 263.361 444.638 257.433 C 444.111 254.052 443.628 250.934 443.452 250.451 C 443.101 249.266 440.335 246.324 437.612 244.304 C 434.758 242.197 280.55 144.06 279.935 143.84 C 278.881 143.489 278.75 143.138 278.486 140.635 C 278.354 139.098 278.223 122.149 278.267 103.005 C 278.31 67.131 278.135 60.501 277.125 57.867 C 276.818 56.988 276.335 53.52 276.027 50.182 C 275.764 46.801 275.193 42.454 274.71 40.522 C 274.271 38.59 273.744 36 273.612 34.814 C 273.437 33.585 272.822 31.126 272.251 29.326 C 271.68 27.525 270.407 23.53 269.441 20.5 C 267.158 13.343 265.313 9.611 262.02 5.307 L 259.342 1.795 L 255.29 0 L 251.438 1.795 L 248.804 5.22 Z" bx:origin="0.479804 0.5"/>
</svg>