<?xml version="1.0" standalone="no"?>
<!DOCTYPE svg PUBLIC "-//W3C//DTD SVG 20010904//EN"
 "http://www.w3.org/TR/2001/REC-SVG-20010904/DTD/svg10.dtd">
<svg version="1.0" xmlns="http://www.w3.org/2000/svg"
 width="512.000000pt" height="512.000000pt" viewBox="0 0 512.000000 512.000000"
 preserveAspectRatio="xMidYMid meet">

<g transform="translate(0.000000,512.000000) scale(0.100000,-0.100000)"
fill="#000000" stroke="none">
<path d="M2522 5078 c-74 -107 -161 -318 -206 -493 -59 -236 -59 -236 -63
-950 -2 -363 -7 -663 -11 -667 -4 -4 -403 -131 -887 -283 -484 -152 -902 -283
-929 -292 -43 -14 -50 -20 -71 -67 -12 -28 -37 -114 -54 -191 -17 -77 -42
-182 -55 -232 -13 -51 -20 -93 -16 -93 5 0 37 34 72 75 52 62 68 75 93 75 17
0 374 16 795 35 421 19 783 35 806 35 l41 0 6 -172 c7 -179 20 -286 39 -321
10 -19 17 -19 144 -13 l133 7 5 -23 c3 -13 26 -202 52 -422 38 -331 44 -400
33 -407 -8 -5 -148 -86 -312 -181 -164 -95 -309 -184 -323 -197 -13 -13 -28
-40 -34 -60 -11 -39 -14 -241 -4 -241 4 0 169 34 367 76 198 41 365 73 372 70
7 -2 16 -22 19 -43 4 -21 11 -45 16 -53 9 -13 11 -13 20 0 5 8 12 32 16 53 3
21 12 41 19 43 7 3 174 -29 372 -70 198 -42 363 -76 367 -76 11 0 6 201 -6
242 -6 21 -21 49 -34 61 -12 12 -157 100 -321 195 -164 95 -304 176 -312 181
-11 7 -5 76 33 407 26 220 49 409 52 422 l5 23 133 -7 c127 -6 134 -6 144 13
19 35 32 142 39 321 l6 172 41 0 c23 0 385 -16 806 -35 421 -19 778 -35 795
-35 25 0 41 -13 93 -75 35 -41 67 -75 72 -75 4 0 -3 42 -16 93 -13 50 -38 155
-55 232 -17 77 -42 163 -54 191 -21 47 -28 53 -71 67 -27 9 -445 140 -929 292
-484 152 -883 279 -887 283 -4 4 -9 304 -11 667 -3 571 -6 673 -21 755 -39
216 -99 407 -179 565 -45 90 -93 165 -107 165 -5 0 -22 -19 -38 -42z"/>
</g>
</svg>
