<?xml version="1.0" standalone="no"?>
<!DOCTYPE svg PUBLIC "-//W3C//DTD SVG 20010904//EN"
 "http://www.w3.org/TR/2001/REC-SVG-20010904/DTD/svg10.dtd">
<svg version="1.0" xmlns="http://www.w3.org/2000/svg"
 width="512.000000pt" height="512.000000pt" viewBox="0 0 512.000000 512.000000"
 preserveAspectRatio="xMidYMid meet">

<g transform="translate(0.000000,512.000000) scale(0.100000,-0.100000)"
fill="#000000" stroke="none">
<path d="M2482 5059 c-68 -68 -120 -159 -154 -269 -22 -75 -22 -78 -28 -848
l-5 -773 -125 -99 -125 -99 -2 87 c-5 143 7 132 -136 132 -82 0 -127 -4 -135
-12 -8 -8 -12 -58 -12 -160 0 -147 0 -149 26 -173 15 -14 24 -32 22 -43 -2
-12 -256 -219 -653 -531 l-650 -512 -29 -170 c-16 -93 -26 -173 -22 -176 3 -3
299 138 658 314 l653 320 240 37 c132 21 252 40 268 43 l27 6 0 -364 c0 -369
9 -508 45 -694 8 -44 15 -85 15 -91 0 -6 -75 -74 -167 -151 -93 -77 -207 -175
-255 -217 l-88 -77 0 -118 c0 -65 3 -120 6 -123 3 -3 131 36 285 87 l279 93 0
-87 c0 -85 2 -91 64 -236 36 -83 70 -150 77 -150 7 0 41 68 76 150 61 145 63
153 63 237 l0 86 279 -93 c154 -51 282 -90 285 -87 3 3 6 58 6 123 l0 118 -87
77 c-49 42 -163 140 -255 217 -93 77 -168 145 -168 151 0 6 7 47 15 91 36 186
45 325 45 694 l0 364 28 -6 c15 -3 135 -22 267 -43 l240 -37 653 -320 c359
-176 655 -317 658 -314 4 3 -6 82 -21 175 l-27 168 -659 519 c-362 286 -659
526 -659 534 0 7 11 24 25 37 25 23 25 26 25 172 0 102 -4 152 -12 160 -8 8
-53 12 -135 12 -142 0 -131 10 -135 -128 l-3 -83 -120 95 -120 95 -5 773 c-6
770 -6 773 -28 848 -13 41 -39 105 -59 142 -38 73 -144 188 -173 188 -10 0
-45 -27 -78 -61z"/>
</g>
</svg>
